<?xml version="1.0" encoding="utf-8"?>
<!-- Generator: Adobe Illustrator 19.0.0, SVG Export Plug-In . SVG Version: 6.00 Build 0)  -->
<svg version="1.1" id="Layer_1" xmlns="http://www.w3.org/2000/svg" xmlns:xlink="http://www.w3.org/1999/xlink" x="0px" y="0px"
	 viewBox="111 84.4 377 73.5" style="enable-background:new 111 84.4 377 73.5;" xml:space="preserve" preserveAspectRatio="xMinYMid">
<style type="text/css">
	.st0{fill:#0182A7;}
	.st1{fill:#FFFFFF;}
</style>
<g>
	<path class="st0" d="M175,136.7c-8.7,8.1-18.5,11.2-27.4,10.8c-15.4-0.7-26.9-12.4-26.9-27c0-7.3,2.8-14,7.9-19.1
		c5.1-5.2,12-8,19-7.9c8.1,0,14,2.4,17.4,7.3l0.1,0.2l0.1,0.1c2.3,3.8,2.8,7.9,1.3,11.8c-3.7,9.8-18.7,14.7-20.4,15.3
		c-2.1,0.7-4.5-0.5-5.2-2.7c-0.1-0.5-0.1-0.9-0.1-1.3c0-1.7,1.2-3.3,3-3.9c4.9-1.6,13.3-5.8,15-10.3c0.2-0.4,0.3-0.9,0.3-1.5
		c0-0.7-0.1-1.7-0.8-2.8c-1.8-2.6-5.2-3.7-10.5-3.7c-4.9,0-9.6,2-13.1,5.5c-3.5,3.4-5.5,8.2-5.5,13.1c0,10,8.2,18.6,18.8,18.6
		c8.7,0,14.5-1.8,22.1-7.7c6.7-5.3,11-11.8,13-17.1c-3-17-17.9-30-35.8-30c-20.1,0-36.4,16.3-36.4,36.4c0,20.1,16.3,36.4,36.4,36.4
		c18.1,0,33.1-13.3,35.9-30.6C181.1,130.3,178.4,133.6,175,136.7z"/>
	<path class="st1" d="M183.1,114.4c-2.1,5.3-6.3,11.8-13,17.1c-7.6,5.9-13.4,7.7-22.1,7.7c-10.6,0-18.8-8.6-18.8-18.6
		c0-4.9,2-9.7,5.5-13.1c3.5-3.5,8.2-5.5,13.1-5.5c5.3,0,8.7,1.1,10.5,3.7c0.7,1.1,0.8,2.1,0.8,2.8c0,0.6-0.1,1.1-0.3,1.5
		c-1.7,4.5-10.1,8.7-15,10.3c-1.8,0.6-3,2.2-3,3.9c0,0.4,0,0.8,0.1,1.3c0.7,2.2,3.1,3.4,5.2,2.7c1.7-0.6,16.7-5.5,20.4-15.3
		c1.5-3.9,1-8-1.3-11.8l-0.1-0.1l-0.1-0.2c-3.4-4.9-9.3-7.3-17.4-7.3c-7-0.1-13.9,2.7-19,7.9c-5.1,5.1-7.9,11.8-7.9,19.1
		c0,14.6,11.5,26.3,26.9,27c8.9,0.4,18.7-2.7,27.4-10.8c3.4-3.1,6.1-6.5,8.2-10.1c0.3-1.9,0.5-3.8,0.5-5.8
		C183.7,118.7,183.5,116.5,183.1,114.4z"/>
</g>
<g id="XMLID_2_">
	<g id="XMLID_3_">
		<path id="XMLID_17_" class="st0" d="M205.5,151.9c6.2,0,11.3-2.8,11.3-10v-2.6c0-1.1,0.1-2.3,0.1-2.3h-0.1
			c-2.1,3.5-5.4,5.6-10.6,5.6c-10,0-16-8-16-18.3s5.7-17.9,15.6-17.9c8.6,0,11.3,5.3,11.3,5.3h0.1c0,0-0.1-0.5-0.1-1.1v-3.3h6.6
			v34.3c0,11.8-9,16.3-18,16.3c-4.3,0-8.8-1.2-12.2-3l2.3-5.4C195.7,149.5,200.1,151.9,205.5,151.9z M217,124.3
			c0-9.3-4.5-12-10.1-12c-6.2,0-9.8,4.5-9.8,11.8c0,7.4,4,12.5,10.4,12.5C212.5,136.6,217,133.7,217,124.3z"/>
		<path id="XMLID_16_" class="st0" d="M232,107.2h6.7v6.2c0,1.5-0.1,2.7-0.1,2.7h0.1c1.6-5.2,5.8-9.3,11.3-9.3
			c0.9,0,1.8,0.1,1.8,0.1v6.8c0,0-0.9-0.2-2-0.2c-4.4,0-8.4,3.1-10,8.4c-0.6,2.1-0.8,4.2-0.8,6.4v14.6h-7V107.2z"/>
		<path id="XMLID_13_" class="st0" d="M271.3,106.4c10.1,0,15.5,7.5,15.5,16.8c0,0.9-0.2,3-0.2,3h-26.1c0.4,7.9,5.9,11.8,12.3,11.8
			c6.2,0,10.6-4.2,10.6-4.2l2.8,5c0,0-5.3,5.1-13.9,5.1c-11.3,0-19-8.1-19-18.8C253.4,113.7,261.1,106.4,271.3,106.4z M279.8,120.9
			c-0.2-6.2-4-9.1-8.6-9.1c-5.2,0-9.5,3.3-10.5,9.1H279.8z"/>
		<path id="XMLID_10_" class="st0" d="M308.7,106.4c10.1,0,15.5,7.5,15.5,16.8c0,0.9-0.2,3-0.2,3h-26.1c0.4,7.9,5.9,11.8,12.3,11.8
			c6.2,0,10.6-4.2,10.6-4.2l2.8,5c0,0-5.3,5.1-13.9,5.1c-11.3,0-19-8.1-19-18.8C290.8,113.7,298.6,106.4,308.7,106.4z M317.2,120.9
			c-0.2-6.2-4-9.1-8.6-9.1c-5.2,0-9.5,3.3-10.5,9.1C298.1,120.9,317.2,120.9,317.2,120.9z"/>
		<path id="XMLID_9_" class="st0" d="M330.6,107.2h6.7v4.7c0,1.4-0.1,2.6-0.1,2.6h0.1c1.7-4.2,6.7-8.2,12.3-8.2
			c6,0,9.6,2.8,10.8,8.1h0.1c2-4.3,6.9-8.1,12.7-8.1c8.1,0,11.8,4.6,11.8,13.7v22.9h-6.9v-21.3c0-5-1-9-6.4-9c-5,0-8.8,4.2-10,9.1
			c-0.4,1.5-0.5,3.1-0.5,5V143h-6.9v-21.4c0-4.7-0.7-9-6.2-9c-5.2,0-8.9,4.3-10.3,9.4c-0.4,1.4-0.4,3-0.4,4.7V143h-6.9L330.6,107.2
			L330.6,107.2z"/>
		<path id="XMLID_6_" class="st0" d="M408.8,106.4c10.1,0,15.5,7.5,15.5,16.8c0,0.9-0.2,3-0.2,3H398c0.4,7.9,5.9,11.8,12.3,11.8
			c6.2,0,10.6-4.2,10.6-4.2l2.8,5c0,0-5.3,5.1-13.9,5.1c-11.3,0-19-8.1-19-18.8C390.9,113.7,398.6,106.4,408.8,106.4z M417.3,120.9
			c-0.2-6.2-4-9.1-8.6-9.1c-5.2,0-9.5,3.3-10.5,9.1C398.2,120.9,417.3,120.9,417.3,120.9z"/>
		<path id="XMLID_5_" class="st0" d="M430.6,107.2h6.7v4.7c0,1.4-0.1,2.6-0.1,2.6h0.1c1.4-3.1,5.7-8.2,13.4-8.2
			c8.4,0,12.3,4.6,12.3,13.7v22.9h-6.9v-21.3c0-5-1.1-9-6.8-9c-5.4,0-9.8,3.6-11.3,8.8c-0.4,1.4-0.6,3-0.6,4.8V143h-6.9L430.6,107.2
			L430.6,107.2z"/>
		<path id="XMLID_4_" class="st0" d="M471.8,113.2h-4.7v-5.5h4.9V97.4h6.7v10.3h8.6v5.5h-8.6v15.9c0,7.1,5,8.1,7.6,8.1
			c1,0,1.6-0.1,1.6-0.1v6.1c0,0-1,0.1-2.4,0.1c-4.6,0-13.7-1.4-13.7-13.4V113.2z"/>
	</g>
</g>
</svg>
